<svg width="228" height="45" viewBox="0 0 228 45" fill="none" xmlns="http://www.w3.org/2000/svg">
<path d="M16.83 18.36C16.83 19.42 16.58 20.42 16.08 21.36C15.58 22.3 14.78 23.07 13.68 23.67C12.58 24.25 11.17 24.54 9.45 24.54H5.67V33H2.25V12.15H9.45C11.05 12.15 12.4 12.43 13.5 12.99C14.62 13.53 15.45 14.27 15.99 15.21C16.55 16.15 16.83 17.2 16.83 18.36ZM9.45 21.75C10.75 21.75 11.72 21.46 12.36 20.88C13 20.28 13.32 19.44 13.32 18.36C13.32 16.08 12.03 14.94 9.45 14.94H5.67V21.75H9.45ZM23.5118 18.87C24.0118 18.03 24.6718 17.38 25.4918 16.92C26.3318 16.44 27.3218 16.2 28.4618 16.2V19.74H27.5918C26.2518 19.74 25.2318 20.08 24.5318 20.76C23.8518 21.44 23.5118 22.62 23.5118 24.3V33H20.0918V16.47H23.5118V18.87ZM30.4655 24.66C30.4655 23 30.8055 21.53 31.4855 20.25C32.1855 18.97 33.1255 17.98 34.3055 17.28C35.5055 16.56 36.8255 16.2 38.2655 16.2C39.5655 16.2 40.6955 16.46 41.6555 16.98C42.6355 17.48 43.4155 18.11 43.9955 18.87V16.47H47.4455V33H43.9955V30.54C43.4155 31.32 42.6255 31.97 41.6255 32.49C40.6255 33.01 39.4855 33.27 38.2055 33.27C36.7855 33.27 35.4855 32.91 34.3055 32.19C33.1255 31.45 32.1855 30.43 31.4855 29.13C30.8055 27.81 30.4655 26.32 30.4655 24.66ZM43.9955 24.72C43.9955 23.58 43.7555 22.59 43.2755 21.75C42.8155 20.91 42.2055 20.27 41.4455 19.83C40.6855 19.39 39.8655 19.17 38.9855 19.17C38.1055 19.17 37.2855 19.39 36.5255 19.83C35.7655 20.25 35.1455 20.88 34.6655 21.72C34.2055 22.54 33.9755 23.52 33.9755 24.66C33.9755 25.8 34.2055 26.8 34.6655 27.66C35.1455 28.52 35.7655 29.18 36.5255 29.64C37.3055 30.08 38.1255 30.3 38.9855 30.3C39.8655 30.3 40.6855 30.08 41.4455 29.64C42.2055 29.2 42.8155 28.56 43.2755 27.72C43.7555 26.86 43.9955 25.86 43.9955 24.72ZM55.9275 19.26V28.41C55.9275 29.03 56.0675 29.48 56.3475 29.76C56.6475 30.02 57.1475 30.15 57.8475 30.15H59.9475V33H57.2475C55.7075 33 54.5275 32.64 53.7075 31.92C52.8875 31.2 52.4775 30.03 52.4775 28.41V19.26H50.5275V16.47H52.4775V12.36H55.9275V16.47H59.9475V19.26H55.9275ZM64.8396 14.28C64.2196 14.28 63.6996 14.07 63.2796 13.65C62.8596 13.23 62.6496 12.71 62.6496 12.09C62.6496 11.47 62.8596 10.95 63.2796 10.53C63.6996 10.11 64.2196 9.9 64.8396 9.9C65.4396 9.9 65.9496 10.11 66.3696 10.53C66.7896 10.95 66.9996 11.47 66.9996 12.09C66.9996 12.71 66.7896 13.23 66.3696 13.65C65.9496 14.07 65.4396 14.28 64.8396 14.28ZM66.5196 16.47V33H63.0996V16.47H66.5196ZM77.5498 24.75L85.1698 33H80.5498L74.4298 25.89V33H71.0098V10.8H74.4298V23.7L80.4298 16.47H85.1698L77.5498 24.75ZM102.224 12.15C104.444 12.15 106.384 12.58 108.044 13.44C109.724 14.28 111.014 15.5 111.914 17.1C112.834 18.68 113.294 20.53 113.294 22.65C113.294 24.77 112.834 26.61 111.914 28.17C111.014 29.73 109.724 30.93 108.044 31.77C106.384 32.59 104.444 33 102.224 33H95.4141V12.15H102.224ZM102.224 30.21C104.664 30.21 106.534 29.55 107.834 28.23C109.134 26.91 109.784 25.05 109.784 22.65C109.784 20.23 109.134 18.34 107.834 16.98C106.534 15.62 104.664 14.94 102.224 14.94H98.8341V30.21H102.224ZM131.834 24.33C131.834 24.95 131.794 25.51 131.714 26.01H119.084C119.184 27.33 119.674 28.39 120.554 29.19C121.434 29.99 122.514 30.39 123.794 30.39C125.634 30.39 126.934 29.62 127.694 28.08H131.384C130.884 29.6 129.974 30.85 128.654 31.83C127.354 32.79 125.734 33.27 123.794 33.27C122.214 33.27 120.794 32.92 119.534 32.22C118.294 31.5 117.314 30.5 116.594 29.22C115.894 27.92 115.544 26.42 115.544 24.72C115.544 23.02 115.884 21.53 116.564 20.25C117.264 18.95 118.234 17.95 119.474 17.25C120.734 16.55 122.174 16.2 123.794 16.2C125.354 16.2 126.744 16.54 127.964 17.22C129.184 17.9 130.134 18.86 130.814 20.1C131.494 21.32 131.834 22.73 131.834 24.33ZM128.264 23.25C128.244 21.99 127.794 20.98 126.914 20.22C126.034 19.46 124.944 19.08 123.644 19.08C122.464 19.08 121.454 19.46 120.614 20.22C119.774 20.96 119.274 21.97 119.114 23.25H128.264ZM141.199 33.27C139.899 33.27 138.729 33.04 137.689 32.58C136.669 32.1 135.859 31.46 135.259 30.66C134.659 29.84 134.339 28.93 134.299 27.93H137.839C137.899 28.63 138.229 29.22 138.829 29.7C139.449 30.16 140.219 30.39 141.139 30.39C142.099 30.39 142.839 30.21 143.359 29.85C143.899 29.47 144.169 28.99 144.169 28.41C144.169 27.79 143.869 27.33 143.269 27.03C142.689 26.73 141.759 26.4 140.479 26.04C139.239 25.7 138.229 25.37 137.449 25.05C136.669 24.73 135.989 24.24 135.409 23.58C134.849 22.92 134.569 22.05 134.569 20.97C134.569 20.09 134.829 19.29 135.349 18.57C135.869 17.83 136.609 17.25 137.569 16.83C138.549 16.41 139.669 16.2 140.929 16.2C142.809 16.2 144.319 16.68 145.459 17.64C146.619 18.58 147.239 19.87 147.319 21.51H143.899C143.839 20.77 143.539 20.18 142.999 19.74C142.459 19.3 141.729 19.08 140.809 19.08C139.909 19.08 139.219 19.25 138.739 19.59C138.259 19.93 138.019 20.38 138.019 20.94C138.019 21.38 138.179 21.75 138.499 22.05C138.819 22.35 139.209 22.59 139.669 22.77C140.129 22.93 140.809 23.14 141.709 23.4C142.909 23.72 143.889 24.05 144.649 24.39C145.429 24.71 146.099 25.19 146.659 25.83C147.219 26.47 147.509 27.32 147.529 28.38C147.529 29.32 147.269 30.16 146.749 30.9C146.229 31.64 145.489 32.22 144.529 32.64C143.589 33.06 142.479 33.27 141.199 33.27ZM152.965 14.28C152.345 14.28 151.825 14.07 151.405 13.65C150.985 13.23 150.775 12.71 150.775 12.09C150.775 11.47 150.985 10.95 151.405 10.53C151.825 10.11 152.345 9.9 152.965 9.9C153.565 9.9 154.075 10.11 154.495 10.53C154.915 10.95 155.125 11.47 155.125 12.09C155.125 12.71 154.915 13.23 154.495 13.65C154.075 14.07 153.565 14.28 152.965 14.28ZM154.645 16.47V33H151.225V16.47H154.645ZM165.795 16.2C167.075 16.2 168.205 16.46 169.185 16.98C170.185 17.48 170.965 18.11 171.525 18.87V16.47H174.975V33.27C174.975 34.79 174.655 36.14 174.015 37.32C173.375 38.52 172.445 39.46 171.225 40.14C170.025 40.82 168.585 41.16 166.905 41.16C164.665 41.16 162.805 40.63 161.325 39.57C159.845 38.53 159.005 37.11 158.805 35.31H162.195C162.455 36.17 163.005 36.86 163.845 37.38C164.705 37.92 165.725 38.19 166.905 38.19C168.285 38.19 169.395 37.77 170.235 36.93C171.095 36.09 171.525 34.87 171.525 33.27V30.51C170.945 31.29 170.155 31.95 169.155 32.49C168.175 33.01 167.055 33.27 165.795 33.27C164.355 33.27 163.035 32.91 161.835 32.19C160.655 31.45 159.715 30.43 159.015 29.13C158.335 27.81 157.995 26.32 157.995 24.66C157.995 23 158.335 21.53 159.015 20.25C159.715 18.97 160.655 17.98 161.835 17.28C163.035 16.56 164.355 16.2 165.795 16.2ZM171.525 24.72C171.525 23.58 171.285 22.59 170.805 21.75C170.345 20.91 169.735 20.27 168.975 19.83C168.215 19.39 167.395 19.17 166.515 19.17C165.635 19.17 164.815 19.39 164.055 19.83C163.295 20.25 162.675 20.88 162.195 21.72C161.735 22.54 161.505 23.52 161.505 24.66C161.505 25.8 161.735 26.8 162.195 27.66C162.675 28.52 163.295 29.18 164.055 29.64C164.835 30.08 165.655 30.3 166.515 30.3C167.395 30.3 168.215 30.08 168.975 29.64C169.735 29.2 170.345 28.56 170.805 27.72C171.285 26.86 171.525 25.86 171.525 24.72ZM187.807 16.2C189.107 16.2 190.267 16.47 191.287 17.01C192.327 17.55 193.137 18.35 193.717 19.41C194.297 20.47 194.587 21.75 194.587 23.25V33H191.197V23.76C191.197 22.28 190.827 21.15 190.087 20.37C189.347 19.57 188.337 19.17 187.057 19.17C185.777 19.17 184.757 19.57 183.997 20.37C183.257 21.15 182.887 22.28 182.887 23.76V33H179.467V16.47H182.887V18.36C183.447 17.68 184.157 17.15 185.017 16.77C185.897 16.39 186.827 16.2 187.807 16.2ZM204.949 33.27C203.649 33.27 202.479 33.04 201.439 32.58C200.419 32.1 199.609 31.46 199.009 30.66C198.409 29.84 198.089 28.93 198.049 27.93H201.589C201.649 28.63 201.979 29.22 202.579 29.7C203.199 30.16 203.969 30.39 204.889 30.39C205.849 30.39 206.589 30.21 207.109 29.85C207.649 29.47 207.919 28.99 207.919 28.41C207.919 27.79 207.619 27.33 207.019 27.03C206.439 26.73 205.509 26.4 204.229 26.04C202.989 25.7 201.979 25.37 201.199 25.05C200.419 24.73 199.739 24.24 199.159 23.58C198.599 22.92 198.319 22.05 198.319 20.97C198.319 20.09 198.579 19.29 199.099 18.57C199.619 17.83 200.359 17.25 201.319 16.83C202.299 16.41 203.419 16.2 204.679 16.2C206.559 16.2 208.069 16.68 209.209 17.64C210.369 18.58 210.989 19.87 211.069 21.51H207.649C207.589 20.77 207.289 20.18 206.749 19.74C206.209 19.3 205.479 19.08 204.559 19.08C203.659 19.08 202.969 19.25 202.489 19.59C202.009 19.93 201.769 20.38 201.769 20.94C201.769 21.38 201.929 21.75 202.249 22.05C202.569 22.35 202.959 22.59 203.419 22.77C203.879 22.93 204.559 23.14 205.459 23.4C206.659 23.72 207.639 24.05 208.399 24.39C209.179 24.71 209.849 25.19 210.409 25.83C210.969 26.47 211.259 27.32 211.279 28.38C211.279 29.32 211.019 30.16 210.499 30.9C209.979 31.64 209.239 32.22 208.279 32.64C207.339 33.06 206.229 33.27 204.949 33.27Z" fill="white"/>
<circle cx="222.5" cy="9.5" r="6.4" fill="url(#paint0_linear_62_201)"/>
<defs>
<linearGradient id="paint0_linear_62_201" x1="226" y1="6.5" x2="215" y2="16" gradientUnits="userSpaceOnUse">
<stop stop-color="#FF6A00"/>
<stop offset="1" stop-color="#EE0979"/>
</linearGradient>
</defs>
</svg>
